<svg width="100" height="100" viewBox="0 0 100 100" fill="none" xmlns="http://www.w3.org/2000/svg">
<path d="M0 0H100V100H0V0Z" fill="#F2F2F2"/>
<path d="M61.8409 38.2273C61.5455 37.0227 61.0795 35.9659 60.4432 35.0568C59.8068 34.125 59.0114 33.3409 58.0568 32.7045C57.125 32.0455 56.0341 31.5568 54.7841 31.2386C53.5568 30.8977 52.2045 30.7273 50.7273 30.7273C47.5455 30.7273 44.8295 31.4886 42.5795 33.0114C40.3523 34.5341 38.6477 36.7273 37.4659 39.5909C36.3068 42.4545 35.7273 45.9091 35.7273 49.9545C35.7273 54.0455 36.2841 57.5455 37.3977 60.4545C38.5114 63.3636 40.1705 65.5909 42.375 67.1364C44.5795 68.6818 47.3182 69.4545 50.5909 69.4545C53.4773 69.4545 55.875 69.0341 57.7841 68.1932C59.7159 67.3523 61.1591 66.1591 62.1136 64.6136C63.0682 63.0682 63.5455 61.25 63.5455 59.1591L66.8182 59.5H50.8636V46H81.8182V55.6818C81.8182 62.0455 80.4659 67.4886 77.7614 72.0114C75.0795 76.5114 71.375 79.9659 66.6477 82.375C61.9432 84.7614 56.5455 85.9545 50.4545 85.9545C43.6591 85.9545 37.6932 84.5114 32.5568 81.625C27.4205 78.7386 23.4091 74.625 20.5227 69.2841C17.6591 63.9432 16.2273 57.5909 16.2273 50.2273C16.2273 44.4545 17.1023 39.3409 18.8523 34.8864C20.625 30.4318 23.0795 26.6705 26.2159 23.6023C29.3523 20.5114 32.9773 18.1818 37.0909 16.6136C41.2045 15.0227 45.6136 14.2273 50.3182 14.2273C54.4545 14.2273 58.2955 14.8182 61.8409 16C65.4091 17.1591 68.5568 18.8182 71.2841 20.9773C74.0341 23.1136 76.25 25.6477 77.9318 28.5795C79.6136 31.5114 80.6364 34.7273 81 38.2273H61.8409Z" fill="#41B883"/>
</svg>
