<svg width="106" height="72" viewBox="0 0 106 72" fill="none" xmlns="http://www.w3.org/2000/svg">
<path d="M42.2181 40.0693L52.848 70.0262L58.1974 54.9506L63.5468 39.875L52.912 4.89442L46.656 25.472L42.2181 40.0693Z" fill="#605BFF"/>
<path d="M51.424 0H28L42.2181 40.0693L46.656 25.472L52.912 4.89442L51.424 0Z" fill="#FFCB32"/>
<path fill-rule="evenodd" clip-rule="evenodd" d="M42.2181 40.0693L38.912 50.944L23.424 0H0L25.344 71.424H52.352L52.848 70.0262L42.2181 40.0693ZM63.5468 39.875L77.696 0H54.4L52.912 4.89442L63.5468 39.875Z" fill="#605BFF"/>
<path d="M82.4 0L66.912 50.944L63.5468 39.875L58.1974 54.9506L52.848 70.0262L53.344 71.424H80.352L105.696 0H82.4Z" fill="#FFCB32"/>
</svg>
