<svg width="441" height="97" viewBox="0 0 441 97" fill="none" xmlns="http://www.w3.org/2000/svg">
<path d="M39.064 74.52L54.552 23.576H77.848L52.504 95H25.496L0.152008 23.576H23.576L39.064 74.52Z" fill="#FFCB32"/>
<path d="M154.389 58.136C154.389 60.184 154.261 62.3174 154.005 64.536H104.469C104.81 68.9734 106.218 72.3867 108.693 74.776C111.253 77.08 114.368 78.232 118.037 78.232C123.498 78.232 127.296 75.928 129.429 71.32H152.725C151.53 76.0134 149.354 80.2374 146.197 83.992C143.125 87.7467 139.242 90.6907 134.549 92.824C129.856 94.9574 124.608 96.024 118.805 96.024C111.808 96.024 105.578 94.5307 100.117 91.544C94.6557 88.5574 90.389 84.2907 87.317 78.744C84.245 73.1974 82.709 66.712 82.709 59.288C82.709 51.864 84.2023 45.3787 87.189 39.832C90.261 34.2854 94.5277 30.0187 99.989 27.032C105.45 24.0454 111.722 22.552 118.805 22.552C125.717 22.552 131.861 24.0027 137.237 26.904C142.613 29.8054 146.794 33.944 149.781 39.32C152.853 44.696 154.389 50.968 154.389 58.136ZM131.989 52.376C131.989 48.6214 130.709 45.6347 128.149 43.416C125.589 41.1974 122.389 40.088 118.549 40.088C114.88 40.088 111.765 41.1547 109.205 43.288C106.73 45.4214 105.194 48.4507 104.597 52.376H131.989Z" fill="#FFCB32"/>
<path d="M198.064 74.52L213.552 23.576H236.848L211.504 95H184.496L159.152 23.576H182.576L198.064 74.52Z" fill="#ffffff"/>
<path d="M241.709 59.16C241.709 51.8214 243.074 45.3787 245.805 39.832C248.621 34.2854 252.418 30.0187 257.197 27.032C261.976 24.0454 267.309 22.552 273.197 22.552C278.232 22.552 282.626 23.576 286.381 25.624C290.221 27.672 293.165 30.36 295.213 33.688V23.576H317.101V95H295.213V84.888C293.08 88.216 290.093 90.904 286.253 92.952C282.498 95 278.104 96.024 273.069 96.024C267.266 96.024 261.976 94.5307 257.197 91.544C252.418 88.472 248.621 84.1627 245.805 78.616C243.074 72.984 241.709 66.4987 241.709 59.16ZM295.213 59.288C295.213 53.8267 293.677 49.5174 290.605 46.36C287.618 43.2027 283.949 41.624 279.597 41.624C275.245 41.624 271.533 43.2027 268.461 46.36C265.474 49.432 263.981 53.6987 263.981 59.16C263.981 64.6214 265.474 68.9734 268.461 72.216C271.533 75.3734 275.245 76.952 279.597 76.952C283.949 76.952 287.618 75.3734 290.605 72.216C293.677 69.0587 295.213 64.7494 295.213 59.288Z" fill="#ffffff"/>
<path d="M354.824 0.280029V95H332.936V0.280029H354.824Z" fill="#FFCB32"/>
<path d="M403.198 96.024C396.201 96.024 389.886 94.5307 384.254 91.544C378.707 88.5574 374.313 84.2907 371.07 78.744C367.913 73.1974 366.334 66.712 366.334 59.288C366.334 51.9494 367.955 45.5067 371.198 39.96C374.441 34.328 378.878 30.0187 384.51 27.032C390.142 24.0454 396.457 22.552 403.454 22.552C410.451 22.552 416.766 24.0454 422.398 27.032C428.03 30.0187 432.467 34.328 435.71 39.96C438.953 45.5067 440.574 51.9494 440.574 59.288C440.574 66.6267 438.91 73.112 435.582 78.744C432.339 84.2907 427.859 88.5574 422.142 91.544C416.51 94.5307 410.195 96.024 403.198 96.024ZM403.198 77.08C407.379 77.08 410.921 75.544 413.822 72.472C416.809 69.4 418.302 65.0054 418.302 59.288C418.302 53.5707 416.851 49.176 413.95 46.104C411.134 43.032 407.635 41.496 403.454 41.496C399.187 41.496 395.646 43.032 392.83 46.104C390.014 49.0907 388.606 53.4854 388.606 59.288C388.606 65.0054 389.971 69.4 392.702 72.472C395.518 75.544 399.017 77.08 403.198 77.08Z" fill="#FFCB32"/>
</svg>
